HIERARCHY
ROOT Hips
{
	OFFSET 0.00000 0.00000 0.00000
	CHANNELS 6 Xposition Yposition Zposition Zrotation Yrotation Xrotation 
	JOINT LHipJoint
	{
		OFFSET 0 0 0
		CHANNELS 3 Zrotation Yrotation Xrotation
		JOINT LeftUpLeg
		{
			OFFSET 1.62067 -1.77917 0.70989
			CHANNELS 3 Zrotation Yrotation Xrotation
			JOINT LeftLeg
			{
				OFFSET 2.34532 -6.44371 0.00000
				CHANNELS 3 Zrotation Yrotation Xrotation
				JOINT LeftFoot
				{
					OFFSET 2.74224 -7.53425 0.00000
					CHANNELS 3 Zrotation Yrotation Xrotation
					JOINT LeftToeBase
					{
						OFFSET 0.17032 -0.46794 2.08086
						CHANNELS 3 Zrotation Yrotation Xrotation
						End Site
						{
							OFFSET 0.00000 -0.00000 1.07476
						}
					}
				}
			}
		}
	}
	JOINT RHipJoint
	{
		OFFSET 0 0 0
		CHANNELS 3 Zrotation Yrotation Xrotation
		JOINT RightUpLeg
		{
			OFFSET -1.55811 -1.77917 0.70989
			CHANNELS 3 Zrotation Yrotation Xrotation
			JOINT RightLeg
			{
				OFFSET -2.33243 -6.40830 0.00000
				CHANNELS 3 Zrotation Yrotation Xrotation
				JOINT RightFoot
				{
					OFFSET -2.78798 -7.65993 0.00000
					CHANNELS 3 Zrotation Yrotation Xrotation
					JOINT RightToeBase
					{
						OFFSET -0.22707 -0.62388 2.04059
						CHANNELS 3 Zrotation Yrotation Xrotation
						End Site
						{
							OFFSET -0.00000 -0.00000 1.07030
						}
					}
				}
			}
		}
	}
	JOINT LowerBack
	{
		OFFSET 0 0 0
		CHANNELS 3 Zrotation Yrotation Xrotation
		JOINT Spine
		{
			OFFSET 0.02203 1.91565 0.07161
			CHANNELS 3 Zrotation Yrotation Xrotation
			JOINT Spine1
			{
				OFFSET 0.01740 1.90525 0.11636
				CHANNELS 3 Zrotation Yrotation Xrotation
				JOINT Neck
				{
					OFFSET 0 0 0
					CHANNELS 3 Zrotation Yrotation Xrotation
					JOINT Neck1
					{
						OFFSET -0.10841 1.83566 0.05067
						CHANNELS 3 Zrotation Yrotation Xrotation
						JOINT Head
						{
							OFFSET 0.06601 1.74760 -0.50505
							CHANNELS 3 Zrotation Yrotation Xrotation
							End Site
							{
								OFFSET 0.03102 1.85215 -0.17697
							}
						}
					}
				}
				JOINT LeftShoulder
				{
					OFFSET 0 0 0
					CHANNELS 3 Zrotation Yrotation Xrotation
					JOINT LeftArm
					{
						OFFSET 2.87059 1.35470 0.16111
						CHANNELS 3 Zrotation Yrotation Xrotation
						JOINT LeftForeArm
						{
							OFFSET 5.43592 -0.00000 0.00000
							CHANNELS 3 Zrotation Yrotation Xrotation
							JOINT LeftHand
							{
								OFFSET 3.25460 -0.00000 0.00000
								CHANNELS 3 Zrotation Yrotation Xrotation
								JOINT LeftFingerBase
								{
									OFFSET 0 0 0
									CHANNELS 3 Zrotation Yrotation Xrotation
									JOINT LeftHandIndex1
									{
										OFFSET 0.49824 -0.00000 0.00000
										CHANNELS 3 Zrotation Yrotation Xrotation
										End Site
										{
											OFFSET 0.40170 -0.00000 0.00000
										}
									}
								}
								JOINT LThumb
								{
									OFFSET 0 0 0
									CHANNELS 3 Zrotation Yrotation Xrotation
									End Site
									{
										OFFSET 0.40783 -0.00000 0.40783
									}
								}
							}
						}
					}
				}
				JOINT RightShoulder
				{
					OFFSET 0 0 0
					CHANNELS 3 Zrotation Yrotation Xrotation
					JOINT RightArm
					{
						OFFSET -2.86643 1.23488 0.45957
						CHANNELS 3 Zrotation Yrotation Xrotation
						JOINT RightForeArm
						{
							OFFSET -5.33830 -0.00000 0.00000
							CHANNELS 3 Zrotation Yrotation Xrotation
							JOINT RightHand
							{
								OFFSET -3.23148 -0.00000 0.00000
								CHANNELS 3 Zrotation Yrotation Xrotation
								JOINT RightFingerBase
								{
									OFFSET 0 0 0
									CHANNELS 3 Zrotation Yrotation Xrotation
									JOINT RightHandIndex1
									{
										OFFSET -0.46364 -0.00000 0.00000
										CHANNELS 3 Zrotation Yrotation Xrotation
										End Site
										{
											OFFSET -0.37380 -0.00000 0.00000
										}
									}
								}
								JOINT RThumb
								{
									OFFSET 0 0 0
									CHANNELS 3 Zrotation Yrotation Xrotation
									End Site
									{
										OFFSET -0.37951 -0.00000 0.37951
									}
								}
							}
						}
					}
				}
			}
		}
	}
}
MOTION
Frames: 9
Frame Time: .0083333
3.7644 17.433 3.6715 0 0 0 0 0 0 -21 0 0 0 0 0 0 0 0 0 0 0 0 0 0 21 0 0 0 0 0 0 0 0 0 0 0 0 0 0 0 0 0 0 0 0 0 0 -16 0 0 21 0 0 11 0 0 0 -8 0 0 0 0 0 0 0 0 0 0 0 0 0 0 0 0 0 0 0 0 8 0 0 0 0 0 0 0 0 0 0 0 0 0 0 0 0 0
3.7644 17.4330 3.6715 -1.3893 -7.8210 21.3672 0.0000 0.0000 0.0000 -22.6003 -11.1753 -26.8222 1.8385 8.5213 24.3091 0.8184 -0.0189 -17.0955 0.2364 3.1289 8.6377 0.0000 0.0000 0.0000 0.4975 2.3661 5.8966 0.0000 0.0000 -0.0000 -0.1500 -16.8444 -25.2108 -4.9911 -13.3738 40.7843 7.3175 1.2074 -11.3360 1.1120 1.2008 -13.8217 -2.8305 -0.0466 -8.3906 13.0551 18.2681 -2.3367 7.6227 22.9064 11.5342 1.6320 12.1554 4.4443 -0.0000 -0.0000 0.0000 41.9191 -10.5684 -26.3962 15.3521 -24.6343 -3.3713 -0.0000 0.0000 -25.2810 27.7278 -20.4971 -10.4289 -7.1250 0.0000 -0.0000 -0.5009 7.0850 0.4353 -0.0000 -0.0000 0.0000 -15.8848 -18.8906 -23.4682 -140.9878 47.4737 -102.2922 0.0000 -0.0000 -59.3895 -5.6453 -46.0749 4.0723 7.1250 -0.0000 -0.0000 50.7575 -70.1463 -33.2072
3.7639 17.4322 3.6702 -1.2254 -7.9915 21.4629 0.0000 0.0000 0.0000 -22.8318 -11.0655 -26.9336 1.8278 8.4978 24.2365 0.8321 -0.0879 -17.2143 0.2358 3.1251 8.6272 0.0000 0.0000 0.0000 0.2435 2.4786 5.7468 0.0000 -0.0000 0.0000 -0.4283 -15.1536 -25.4597 -5.3255 -13.7413 42.2108 7.1185 1.2269 -11.3698 1.0350 1.2322 -13.8826 -2.8008 -0.0204 -8.4347 13.1504 18.2466 -2.2621 7.5040 22.8971 11.5111 1.5826 12.1469 4.4500 -0.0000 -0.0000 0.0000 42.0108 -10.4900 -26.3558 15.3595 -24.6446 -3.3744 -0.0000 0.0000 -25.4153 27.4284 -20.5933 -10.3450 -7.1250 0.0000 -0.0000 -0.7025 7.0368 0.6112 -0.0000 -0.0000 0.0000 -15.8790 -18.8837 -23.4844 -140.9626 47.4892 -102.2736 0.0000 -0.0000 -59.3543 -4.9969 -45.9427 3.5954 7.1250 -0.0000 -0.0000 51.0367 -69.8488 -33.1142
3.7654 17.4331 3.6687 -1.2673 -8.3256 21.8108 0.0000 0.0000 0.0000 -22.7917 -11.1445 -27.3396 1.8364 8.5166 24.2944 0.8209 0.1811 -17.1920 0.2232 3.0415 8.3942 0.0000 0.0000 0.0000 0.1199 2.8382 5.3157 0.0000 -0.0000 0.0000 -0.5409 -14.5247 -25.6683 -5.4839 -13.9088 42.8735 7.0522 1.3659 -11.5438 0.9995 1.4061 -13.9987 -2.7917 0.0666 -8.4531 13.1738 18.2244 -2.2388 7.3934 22.8884 11.3869 1.5396 12.1320 4.4220 0.0000 0.0000 0.0000 42.0705 -10.5199 -26.5449 15.3298 -24.6036 -3.3621 -0.0000 0.0000 -25.2624 27.3609 -20.9317 -10.4742 -7.1250 0.0000 -0.0000 -0.7867 6.6812 0.6899 0.0000 0.0000 0.0000 -15.9190 -18.9363 -23.4518 -140.9253 47.5120 -102.2462 0.0000 -0.0000 -59.2689 -4.3348 -45.7793 3.1095 7.1250 -0.0000 -0.0000 51.2649 -69.5298 -32.9566
3.7621 17.4301 3.6776 -1.2782 -7.9592 21.5570 0.0000 0.0000 0.0000 -22.7332 -11.1613 -27.0413 1.8417 8.5282 24.3301 0.8190 -0.0109 -17.1044 0.2179 3.0051 8.2930 0.0000 0.0000 0.0000 0.3181 2.4562 5.6923 0.0000 0.0000 -0.0000 -0.8389 -12.9399 -26.3798 -5.9127 -14.3432 44.6305 7.1881 1.2590 -11.3935 0.9908 1.2696 -13.9434 -2.8848 -0.0140 -8.4887 13.1170 18.2030 -2.4483 7.4891 22.8093 11.5776 1.5987 12.1073 4.4966 -0.0000 0.0000 0.0000 42.0843 -10.6064 -26.7643 15.2906 -24.5494 -3.3458 -0.0000 0.0000 -25.0552 27.6213 -21.1713 -10.7015 -7.1250 0.0000 -0.0000 -0.6524 6.3701 0.5760 -0.0000 0.0000 0.0000 -15.9504 -18.9366 -23.4419 -140.8924 47.5322 -102.2219 0.0000 -0.0000 -59.2017 -4.1916 -45.7913 3.0072 7.1250 -0.0000 -0.0000 51.4174 -69.4895 -33.0300
3.7595 17.4280 3.6801 -1.3309 -7.7946 21.4522 0.0000 0.0000 0.0000 -22.6664 -11.0833 -26.9747 1.8528 8.5524 24.4050 0.8317 -0.2230 -17.1649 0.2251 3.0542 8.4298 0.0000 0.0000 0.0000 0.4661 2.3011 5.8582 0.0000 0.0000 -0.0000 -1.0804 -11.5890 -26.9628 -6.2537 -14.6698 45.9917 7.3205 1.2067 -11.2934 0.9887 1.2030 -13.9457 -2.9646 -0.0620 -8.5566 13.1880 18.1624 -2.4200 7.3798 22.7640 11.6201 1.5604 12.0846 4.5258 0.0000 0.0000 0.0000 42.1022 -10.6044 -26.7804 15.2910 -24.5500 -3.3459 -0.0000 0.0000 -25.0877 27.5911 -21.0442 -10.6283 -7.1250 0.0000 -0.0000 -0.6555 6.5144 0.5769 0.0000 0.0000 0.0000 -15.9621 -18.8130 -23.5540 -140.7958 47.5913 -102.1506 0.0000 -0.0000 -59.2412 -4.2220 -46.0182 3.0406 7.1250 -0.0000 -0.0000 51.8848 -69.6350 -33.5369
3.7597 17.4262 3.6857 -1.3331 -7.7712 21.4380 0.0000 0.0000 0.0000 -22.7055 -10.9463 -27.0086 1.8623 8.5731 24.4688 0.8459 -0.3918 -17.2564 0.2266 3.0638 8.4565 0.0000 0.0000 0.0000 0.4900 2.2699 5.8997 0.0000 0.0000 -0.0000 -1.0721 -11.6492 -26.9531 -6.2195 -14.6377 45.8563 7.4054 1.2007 -11.3561 0.9468 1.1803 -13.9088 -3.0569 -0.0805 -8.4819 13.2619 18.1797 -2.4066 7.2261 22.8043 11.5484 1.5100 12.0958 4.5278 -0.0000 0.0000 0.0000 42.1696 -10.4561 -26.6327 15.3294 -24.6030 -3.3619 -0.0000 0.0000 -25.2891 27.5172 -20.8080 -10.4846 -7.1250 0.0000 -0.0000 -0.6727 6.7860 0.5885 -0.0000 0.0000 0.0000 -15.9440 -18.7339 -23.6988 -140.7078 47.6449 -102.0856 0.0000 -0.0000 -59.2502 -4.6390 -46.2117 3.3524 7.1250 -0.0000 -0.0000 51.9481 -69.8890 -33.8508
3.7607 17.4251 3.6931 -1.3888 -7.6970 21.4739 0.0000 0.0000 0.0000 -22.6427 -10.9415 -27.0574 1.8703 8.5906 24.5227 0.8502 -0.4710 -17.2747 0.2293 3.0819 8.5068 0.0000 0.0000 0.0000 0.5757 2.2075 5.9083 0.0000 -0.0000 0.0000 -0.9657 -12.2302 -26.6777 -6.0432 -14.4701 45.1550 7.5356 1.2121 -11.4735 0.9140 1.1736 -13.8633 -3.1635 -0.0925 -8.3661 13.1900 18.2020 -2.5983 7.2657 22.8036 11.5465 1.5460 12.0959 4.5442 0.0000 -0.0000 0.0000 42.2532 -10.3137 -26.3591 15.3825 -24.6762 -3.3840 -0.0000 0.0000 -25.6630 27.3558 -20.7106 -10.3686 -7.1250 0.0000 -0.0000 -0.7628 6.9227 0.6654 0.0000 -0.0000 0.0000 -15.9403 -18.8730 -23.6462 -140.7650 47.6101 -102.1279 0.0000 -0.0000 -59.2170 -5.9492 -46.3079 4.3090 7.1250 -0.0000 -0.0000 51.0174 -70.3886 -33.6535
3.7596 17.4236 3.6959 -1.3975 -7.6274 21.4469 0.0000 0.0000 0.0000 -22.6144 -10.9696 -27.0371 1.8763 8.6035 24.5626 0.8537 -0.5322 -17.2913 0.2404 3.1556 8.7123 0.0000 0.0000 0.0000 0.6136 2.1322 5.9728 0.0000 -0.0000 0.0000 -0.9859 -12.0801 -26.6927 -6.0646 -14.4906 45.2404 7.5919 1.2180 -11.4581 0.8718 1.1781 -13.8563 -3.2401 -0.0975 -8.3664 13.1054 18.1404 -2.6500 7.2697 22.7248 11.4372 1.5459 12.0499 4.5057 -0.0000 0.0000 0.0000 42.3115 -10.3760 -26.4325 15.3710 -24.6604 -3.3792 -0.0000 0.0000 -25.6490 27.1305 -20.5915 -10.2157 -7.1250 0.0000 -0.0000 -0.8912 7.0948 0.7744 -0.0000 0.0000 0.0000 -15.9939 -19.0911 -23.4294 -140.8463 47.5604 -102.1879 0.0000 -0.0000 -59.0393 -7.3049 -46.2602 5.2914 7.1250 -0.0000 -0.0000 49.7048 -70.8232 -33.0859
